:FULLY-SPECIFIED
:FORCE-ALL-JOINTS-BE-3DOF
:DEGREES
408
root 4.40644 16.1963 -11.3454 3.50443 -32.3337 -4.10733
lfemur -31.5098 5.05746 -7.02238
ltibia 44.7014 0 0
lfoot -11.2513 12.0534 0
ltoes -1.98985 0 0
rfemur -32.1832 -19.5463 23.6804
rtibia 76.569 0 0
rfoot 3.58288 -6.68828 0
rtoes 29.028 0 0
lowerback 4.86504 4.09251 0.517066
upperback 1.50737 5.44694 -1.50589
thorax -0.990454 2.71658 -2.12611
lowerneck -6.42584 1.57921 6.88907
upperneck 3.78806 1.43639 1.14046
head 2.36608 0.852568 -0.766486
lclavicle 8.96713e-14 1.24401e-14 0
lhumerus -44.797 -19.8333 94.4881
lradius 51.8794 0 0
lwrist 18.4849 0 0
lhand -16.8441 3.65414 0
lfingers 7.12502 0 0
lthumb 9.38576 33.4252 0
rclavicle 8.96713e-14 1.24401e-14 0
rhumerus -45.7918 8.95912 -91.9908
rradius 62.8441 0 0
rwrist 8.61246 0 0
rhand -20.284 -19.6667 0
rfingers 7.12502 0 0
rthumb 6.06493 -769.483 0
409
root 4.31739 16.1629 -11.2724 3.55596 -31.3528 -4.41758
lfemur -31.8062 5.20434 -6.53316
ltibia 45.329 0 0
lfoot -11.9229 11.2949 0
ltoes -2.54479 0 0
rfemur -31.6863 -18.5625 22.9734
rtibia 75.1242 0 0
rfoot 3.00348 -6.71005 0
rtoes 26.1042 0 0
lowerback 4.8882 3.97763 0.680029
upperback 1.49544 5.30497 -1.41957
thorax -1.01834 2.64501 -2.12208
lowerneck -6.44492 1.57397 6.89702
upperneck 3.76505 1.43069 1.08916
head 2.36253 0.847907 -0.784714
lclavicle 8.66447e-14 1.25683e-14 0
lhumerus -44.6721 -20.2003 94.601
lradius 51.8987 0 0
lwrist 18.1504 0 0
lhand -16.857 3.52339 0
lfingers 7.12502 0 0
lthumb 9.37335 33.295 0
rclavicle 8.66447e-14 1.25683e-14 0
rhumerus -45.9482 8.52482 -91.8835
rradius 63.05 0 0
rwrist 8.77378 0 0
rhand -20.8533 -20.0573 0
rfingers 7.12502 0 0
rthumb 5.51522 -769.873 0
410
root 4.22835 16.1294 -11.1995 3.60748 -30.3719 -4.72783
lfemur -32.1027 5.35121 -6.04395
ltibia 45.9566 0 0
lfoot -12.5946 10.5364 0
ltoes -3.09973 0 0
rfemur -31.1893 -17.5787 22.2664
rtibia 73.6795 0 0
rfoot 2.42409 -6.73182 0
rtoes 23.1805 0 0
lowerback 4.91135 3.86275 0.842991
upperback 1.48352 5.163 -1.33324
thorax -1.04622 2.57344 -2.11805
lowerneck -6.46401 1.56872 6.90498
upperneck 3.74203 1.42499 1.03785
head 2.35898 0.843245 -0.802943
lclavicle 8.3618e-14 1.26966e-14 0
lhumerus -44.5471 -20.5673 94.7139
lradius 51.9181 0 0
lwrist 17.8158 0 0
lhand -16.8698 3.39263 0
lfingers 7.12502 0 0
lthumb 9.36095 33.1647 0
rclavicle 8.3618e-14 1.26966e-14 0
rhumerus -46.1045 8.09053 -91.7762
rradius 63.2559 0 0
rwrist 8.9351 0 0
rhand -21.4226 -20.4479 0
rfingers 7.12502 0 0
rthumb 4.96551 -770.262 0
411
root 4.13931 16.096 -11.1265 3.65901 -29.391 -5.03808
lfemur -32.3992 5.49808 -5.55473
ltibia 46.5843 0 0
lfoot -13.2662 9.77788 0
ltoes -3.65468 0 0
rfemur -30.6924 -16.5949 21.5594
rtibia 72.2347 0 0
rfoot 1.84469 -6.7536 0
rtoes 20.2568 0 0
lowerback 4.93451 3.74786 1.00595
upperback 1.4716 5.02103 -1.24692
thorax -1.0741 2.50187 -2.11402
lowerneck -6.4831 1.56348 6.91293
upperneck 3.71902 1.41929 0.986546
head 2.35543 0.838584 -0.821171
lclavicle 8.05913e-14 1.28248e-14 0
lhumerus -44.4222 -20.9343 94.8267
lradius 51.9374 0 0
lwrist 17.4813 0 0
lhand -16.8827 3.26187 0
lfingers 7.12502 0 0
lthumb 9.34854 33.0345 0
rclavicle 8.05913e-14 1.28248e-14 0
rhumerus -46.2608 7.65623 -91.6689
rradius 63.4618 0 0
rwrist 9.09642 0 0
rhand -21.9919 -20.8385 0
rfingers 7.12502 0 0
rthumb 4.4158 -770.652 0
412
root 4.05026 16.0626 -11.0535 3.71053 -28.4101 -5.34834
lfemur -32.6956 5.64496 -5.06551
ltibia 47.2119 0 0
lfoot -13.9379 9.01937 0
ltoes -4.20962 0 0
rfemur -30.1954 -15.611 20.8525
rtibia 70.79 0 0
rfoot 1.2653 -6.77537 0
rtoes 17.333 0 0
lowerback 4.95766 3.63298 1.16892
upperback 1.45967 4.87906 -1.16059
thorax -1.10198 2.4303 -2.10998
lowerneck -6.50218 1.55824 6.92089
upperneck 3.69601 1.41358 0.93524
head 2.35188 0.833923 -0.839399
lclavicle 7.75647e-14 1.29531e-14 0
lhumerus -44.2972 -21.3013 94.9396
lradius 51.9567 0 0
lwrist 17.1468 0 0
lhand -16.8956 3.13111 0
lfingers 7.12502 0 0
lthumb 9.33613 32.9043 0
rclavicle 7.75647e-14 1.29531e-14 0
rhumerus -46.4172 7.22194 -91.5615
rradius 63.6678 0 0
rwrist 9.25774 0 0
rhand -22.5613 -21.229 0
rfingers 7.12502 0 0
rthumb 3.86609 -771.042 0
413
root 3.96122 16.0291 -10.9805 3.76206 -27.4292 -5.65859
lfemur -32.9921 5.79183 -4.57629
ltibia 47.8395 0 0
lfoot -14.6095 8.26085 0
ltoes -4.76456 0 0
rfemur -29.6985 -14.6272 20.1455
rtibia 69.3452 0 0
rfoot 0.685901 -6.79714 0
rtoes 14.4093 0 0
lowerback 4.98082 3.51809 1.33188
upperback 1.44775 4.73709 -1.07427
thorax -1.12986 2.35873 -2.10595
lowerneck -6.52127 1.553 6.92884
upperneck 3.67299 1.40788 0.883933
head 2.34833 0.829261 -0.857628
lclavicle 7.4538e-14 1.30813e-14 0
lhumerus -44.1723 -21.6683 95.0525
lradius 51.9761 0 0
lwrist 16.8123 0 0
lhand -16.9084 3.00036 0
lfingers 7.12502 0 0
lthumb 9.32373 32.7741 0
rclavicle 7.4538e-14 1.30813e-14 0
rhumerus -46.5735 6.78764 -91.4542
rradius 63.8737 0 0
rwrist 9.41906 0 0
rhand -23.1306 -21.6196 0
rfingers 7.12502 0 0
rthumb 3.31638 -771.432 0
414
root 3.87217 15.9957 -10.9076 3.81358 -26.4483 -5.96884
lfemur -33.2886 5.9387 -4.08707
ltibia 48.4672 0 0
lfoot -15.2812 7.50234 0
ltoes -5.3195 0 0
rfemur -29.2015 -13.6434 19.4385
rtibia 67.9005 0 0
rfoot 0.106505 -6.81892 0
rtoes 11.4856 0 0
lowerback 5.00397 3.40321 1.49484
upperback 1.43583 4.59512 -0.987941
thorax -1.15774 2.28716 -2.10192
lowerneck -6.54036 1.54775 6.9368
upperneck 3.64998 1.40218 0.832627
head 2.34478 0.8246 -0.875856
lclavicle 7.15114e-14 1.32096e-14 0
lhumerus -44.0473 -22.0352 95.1653
lradius 51.9954 0 0
lwrist 16.4778 0 0
lhand -16.9213 2.8696 0
lfingers 7.12502 0 0
lthumb 9.31132 32.6439 0
rclavicle 7.15114e-14 1.32096e-14 0
rhumerus -46.7299 6.35335 -91.3469
rradius 64.0796 0 0
rwrist 9.58038 0 0
rhand -23.6999 -22.0102 0
rfingers 7.12502 0 0
rthumb 2.76667 -771.822 0
